<svg xmlns="http://www.w3.org/2000/svg" shape-rendering="geometricPrecision" text-rendering="geometricPrecision" image-rendering="optimizeQuality" fill-rule="evenodd" clip-rule="evenodd" viewBox="0 0 512 380.42"><path fill-rule="nonzero" d="m220.13 150.23-.03.07c-1.7 4.75-4.71 8-9.11 10.6-2.5 1.48-5.23 2.62-7.99 3.75-21.74 8.92-43.18 19.69-64.91 28.38-5.22 1.82-9.35-2.76-6.18-7.21l.02-.01c.78-1.09 1.73-1.81 2.77-2.61 19.25-14.95 38.32-30.29 57.45-45.4 3.99-3.15 8.46-6.3 13.73-6.48 10.39-.34 17.63 8.85 14.25 18.91zM12.49 361.11H503.7c1.11 0 2.02.91 2.02 2.02v15.27c0 1.1-.91 2.02-2.02 2.02H12.49c-1.1 0-2.02-.91-2.02-2.02v-15.27c0-1.11.91-2.02 2.02-2.02zm48.07-120.47-.02.05c-.16.44-.34.87-.54 1.3l-.09.21c-.23.47-.51.94-.81 1.39-1.25 1.85-2.89 3.2-4.74 4.3-1.68.99-3.54 1.77-5.42 2.54-14.74 6.03-29.38 12.93-44.04 19.26-4.26 1.46-6.9-2.99-2.98-6.14 12.84-10.58 27.14-20.57 39.66-31.34.83-.66 1.7-1.31 2.68-1.95l.17-.12c.99-.64 2.01-1.2 3.06-1.61l.14-.06c1.01-.37 2.09-.61 3.25-.65 7.17-.23 11.94 6.07 9.68 12.82zm11.94 5.31h9.31c1.26.01 2.35.95 2.5 2.23l11.86 99.07c0 1.39-1.13 2.52-2.52 2.52H62.23l-.26-.02a2.505 2.505 0 0 1-2.24-2.75l10.25-98.59a2.523 2.523 0 0 1 2.52-2.46zm10.69-32.13c1.69.7 3.21 1.72 4.45 2.96a13.84 13.84 0 0 1 2.98 4.47c.63 1.54.99 3.22 1.01 4.98l.02.25c0 1.83-.37 3.61-1.05 5.24-.69 1.69-1.71 3.2-2.96 4.45a13.852 13.852 0 0 1-4.46 2.96 13.84 13.84 0 0 1-5.22 1.03 13.808 13.808 0 0 1-9.7-3.99c-3.89-3.94-5.08-9.81-2.96-14.94a13.7 13.7 0 0 1 2.96-4.45c1.27-1.25 2.78-2.26 4.48-2.97 1.62-.67 3.38-1.03 5.22-1.03 1.83 0 3.6.37 5.23 1.04zm-14.16-11.9-.02-.05c-1.85-3.95-1.24-8.03-.62-12.19 2.43-15.8 3.78-31.97 6.29-47.72 1.01-4.43 6.17-4.32 6.81.6 2.8 15.64 4.28 33.9 6.29 49.91.04.18.06.37.06.57v.02c.14 1.08.24 2.15.28 3.2.03 1.19-.02 2.35-.2 3.44l-.03.17c-1.85 9.45-14.06 11.8-18.86 2.05zm25.09 35.93c.37-4.5 3.68-7.51 7.99-8.29.53-.09 1.07-.15 1.61-.17.56-.03 1.12-.02 1.64.02 2.18.18 4.12.93 5.94 1.99l.15.08c1.64.96 3.18 2.19 4.74 3.43 12.34 9.5 26.96 19.44 38.35 29.36 3.4 3.32.35 7.23-3.85 5.59l-46.76-19.62c-1.09-.46-2.18-.94-3.21-1.5-1.1-.58-2.13-1.24-3-2-2.63-2.26-3.88-5.49-3.6-8.89zm321.3 2.05c2.66 3.56 2.08 8.31-.3 11.84-1.24 1.85-2.89 3.2-4.74 4.3-1.68.99-3.54 1.76-5.41 2.54-14.72 6.03-29.33 13.48-44.03 19.25-3.53 1.23-6.37-1.86-4.2-4.9.3-.41.71-.84 1.22-1.25 12.89-10.2 27.31-20.71 39.65-31.32.86-.69 1.77-1.36 2.74-2l.11-.07c.98-.64 2-1.2 3.06-1.61l.14-.05c1.01-.38 2.08-.62 3.25-.66 3.16-.1 6.6 1.36 8.51 3.93zm13.1 14.2h9.31c1.24.01 2.33.94 2.49 2.2l11.82 90.41a2.522 2.522 0 0 1-2.46 3.06h-31.43l-.27-.02a2.515 2.515 0 0 1-2.23-2.77L426 256.51a2.528 2.528 0 0 1 2.52-2.41zm10.69-32.13c1.7.7 3.21 1.71 4.46 2.96s2.27 2.78 2.97 4.47c.64 1.54 1 3.22 1.02 4.98l.01.25c0 1.83-.37 3.61-1.04 5.24a13.7 13.7 0 0 1-2.96 4.45 14.005 14.005 0 0 1-4.47 2.96c-1.62.66-3.38 1.03-5.22 1.03-1.84 0-3.61-.37-5.24-1.04-1.69-.69-3.21-1.7-4.45-2.95a13.745 13.745 0 0 1-4.01-9.69c0-1.84.37-3.62 1.05-5.24.69-1.7 1.71-3.21 2.96-4.46 1.26-1.25 2.78-2.27 4.47-2.96a13.656 13.656 0 0 1 10.45 0zm-4.23-5.58c-2.12.2-4.13-.37-5.89-1.54-1.83-1.21-3.08-2.84-4.04-4.78l-.02-.05c-1.85-3.95-1.24-8.03-.61-12.18 2.43-15.8 3.78-31.98 6.29-47.73.98-4.41 6.16-4.32 6.81.6 2.79 15.64 4.27 33.91 6.28 49.91.05.18.07.37.07.57v.02c.13 1.08.24 2.16.27 3.2.13 3.76-.7 7.06-3.69 9.56-1.54 1.31-3.45 2.23-5.47 2.42zm15.93 26.59c.4-.89.95-1.69 1.62-2.38l.14-.15c3.95-3.95 10.14-3.52 14.66-.9l.15.08c1.7 1 3.27 2.25 4.84 3.51 12.3 9.66 26.77 19.29 38.24 29.28.31.31.57.62.77.94l.17.26c1.42 2.54-.37 5.06-3.21 4.79l-.1-.01c-.45-.05-.95-.18-1.48-.39l-46.76-19.62c-1.09-.46-2.18-.94-3.21-1.5-1.07-.57-2.07-1.21-2.94-1.95l-.05-.04c-3.33-2.84-4.66-7.89-2.84-11.92zm-213.17-84.92h13.72c1.89.01 3.51 1.45 3.68 3.38l17.44 185.14a3.726 3.726 0 0 1-3.66 4.39l-46.62-.02c-2.04-.15-3.57-1.94-3.41-3.99l15.13-185.32a3.718 3.718 0 0 1 3.72-3.58zm15.75-47.38a20.15 20.15 0 0 1 6.57 4.37c1.85 1.85 3.36 4.09 4.39 6.59.94 2.27 1.47 4.76 1.5 7.35l.01.35c0 2.71-.54 5.33-1.53 7.73a20.266 20.266 0 0 1-4.37 6.56l-.03.02a20.195 20.195 0 0 1-6.55 4.34 20.26 20.26 0 0 1-7.7 1.53c-2.72 0-5.34-.55-7.73-1.53a20.186 20.186 0 0 1-6.56-4.36c-3.77-3.82-5.9-8.92-5.9-14.29 0-2.72.54-5.33 1.53-7.73 1.03-2.49 2.52-4.72 4.37-6.56l.03-.02c1.86-1.84 4.09-3.34 6.56-4.36a20.26 20.26 0 0 1 7.7-1.53c2.72 0 5.33.55 7.71 1.54zm-6.23-8.23c-3.14.3-6.08-.54-8.7-2.27-2.66-1.76-4.51-4.17-5.91-6.98l-.06-.12c-2.74-5.82-1.83-11.84-.91-17.97 3.52-23.11 5.17-47.64 9.28-70.37 1.46-6.6 9.12-6.34 10.05.96 4.03 23.29 6.27 49.76 9.25 73.52.07.26.1.54.1.82v.02c.6 4.97.92 10.14-1.57 14.65-2.31 4.09-6.81 7.3-11.53 7.74zm22.32 45.77c-.03-.76-.02-1.46.03-2.09.53-6.53 5.24-10.94 11.49-12.19l.33-.07c4.86-.86 9.46.33 13.73 2.84 2.48 1.47 4.72 3.24 6.96 5.04 18.9 13.97 37.53 28.73 56.23 43.03l.34.29c.59.57 1.05 1.18 1.38 1.77.5.89.73 1.79.73 2.64 0 .3-.02.62-.1.98-.11.48-.28.94-.6 1.41-.22.34-.5.65-.79.9l-.34.26c-.2.16-.43.3-.68.41-.88.41-1.93.58-3.09.44a9.04 9.04 0 0 1-2.23-.59l-68.9-28.92c-1.61-.67-3.21-1.39-4.73-2.2-5.62-3.01-9.44-7.2-9.76-13.95z"/></svg>